<svg width="1600" height="1000" viewBox="0 0 1600 1000" xmlns="http://www.w3.org/2000/svg">
  <rect width="1600" height="1000" fill="#0d1b2a"/>
  <rect x="90" y="140" width="1420" height="720" rx="36" fill="#14324d" stroke="#2d5f82" stroke-width="4"/>

  <path d="M230 760C420 700 580 650 760 670C910 686 1040 725 1280 780" stroke="#62d0ff" stroke-width="10" fill="none" stroke-linecap="round" opacity="0.8"/>
  <path d="M210 820C430 770 730 760 1030 800C1150 816 1250 830 1380 860" stroke="#31a6d7" stroke-width="8" fill="none" stroke-linecap="round" opacity="0.55"/>

  <g stroke="#6fe5ff" stroke-width="4" opacity="0.55">
    <line x1="220" y1="220" x2="1380" y2="220"/>
    <line x1="220" y1="320" x2="1380" y2="320"/>
    <line x1="220" y1="420" x2="1380" y2="420"/>
    <line x1="220" y1="520" x2="1380" y2="520"/>
    <line x1="220" y1="620" x2="1380" y2="620"/>
    <line x1="220" y1="720" x2="1380" y2="720"/>
    <line x1="320" y1="180" x2="320" y2="820"/>
    <line x1="480" y1="180" x2="480" y2="820"/>
    <line x1="640" y1="180" x2="640" y2="820"/>
    <line x1="800" y1="180" x2="800" y2="820"/>
    <line x1="960" y1="180" x2="960" y2="820"/>
    <line x1="1120" y1="180" x2="1120" y2="820"/>
    <line x1="1280" y1="180" x2="1280" y2="820"/>
  </g>

  <g fill="#0f2f45" stroke="#5ae2ff" stroke-width="3" opacity="0.7">
    <rect x="250" y="190" width="170" height="115" rx="16"/>
    <rect x="520" y="220" width="190" height="115" rx="16"/>
    <rect x="820" y="260" width="200" height="120" rx="16"/>
    <rect x="1100" y="220" width="150" height="115" rx="16"/>
    <rect x="260" y="480" width="180" height="130" rx="16"/>
    <rect x="560" y="500" width="180" height="130" rx="16"/>
    <rect x="860" y="490" width="180" height="150" rx="16"/>
    <rect x="1120" y="500" width="140" height="120" rx="16"/>
  </g>

  <g fill="#1d5f83" opacity="0.85">
    <circle cx="420" cy="270" r="10"/>
    <circle cx="700" cy="320" r="10"/>
    <circle cx="940" cy="360" r="10"/>
    <circle cx="1180" cy="300" r="10"/>
    <circle cx="360" cy="610" r="10"/>
    <circle cx="645" cy="640" r="10"/>
    <circle cx="940" cy="650" r="10"/>
    <circle cx="1200" cy="630" r="10"/>
  </g>

  <path d="M140 790C310 735 470 720 620 728C760 736 860 760 1020 790C1160 818 1300 830 1460 818" stroke="#84d4ff" stroke-width="18" fill="none" stroke-linecap="round" opacity="0.55"/>
  <path d="M180 850C400 820 630 812 860 822C1000 828 1170 840 1420 870" stroke="#4fb5de" stroke-width="10" fill="none" stroke-linecap="round" opacity="0.35"/>

  <text x="1110" y="170" fill="#dff8ff" font-family="Arial, sans-serif" font-size="42" font-weight="700">São Paulo</text>
</svg>
